<svg xmlns="http://www.w3.org/2000/svg" viewBox="0 0 300 44.675" overflow="visible">
  <defs>
    <linearGradient id="a" gradientUnits="userSpaceOnUse" x1="9.29" y1="96.688" x2="92.146" y2="13.831">
      <stop stop-color="#468cf6" offset=".05"/>
      <stop stop-color="#094db4" offset=".95"/>
    </linearGradient>
  </defs>
  <path d="M98.537 42.433a2.502 2.502 0 00-1.438-1.263l-18.376-6.256V22.979a2.5 2.5 0 00-2.5-2.5H5.142a2.5 2.5 0 00-2.5 2.5v46.485a2.5 2.5 0 002.5 2.5H27.82l52.682 17.942a2.497 2.497 0 003.173-1.561L98.66 44.343a2.499 2.499 0 00-.123-1.91zM73.724 25.479v31.23h-2.552L50.21 35.748a2.5 2.5 0 00-3.535 0L32.85 49.573l-3.762-3.762a2.498 2.498 0 00-3.535 0L14.655 56.709H7.642v-31.23h66.082zm-40.809 31.23H21.726l5.595-5.595 5.594 5.595zm7.07 0l-3.601-3.601 12.058-12.057 15.659 15.657H39.985zM7.642 61.691h7.965c.031.001.061.009.092.009s.061-.008.092-.009h57.933v5.272H7.642v-5.272zm72.105 22.676L43.328 71.964h32.896a2.5 2.5 0 002.5-2.5V40.195l14.397 4.902-13.374 39.27z" transform="translate(-1.697 -13.152) scale(.64224)" fill="url(#a)"/>
  <path d="M89.537 15.447h-1.82c-.288.017-.505.117-.663.305-.155.187-.292.471-.413.855l-5.113 15.468c-.05.142-.088.259-.117.363-.025.1-.042.188-.042.263 0 .204.13.305.392.305h1.26c.139 0 .251-.017.335-.055a.492.492 0 00.204-.158c.046-.071.088-.15.121-.246.034-.092.059-.2.084-.322l.087-.367h3.435l.134.426a.861.861 0 00.33.454c.1.071.22.134.363.188.142.055.317.08.53.08h6.932a.896.896 0 00.56-.21c.175-.137.263-.354.263-.646 0-.092-.009-.18-.025-.271a2.084 2.084 0 00-.088-.305l-5.61-14.992a6.46 6.46 0 00-.233-.534 1.453 1.453 0 00-.238-.355.743.743 0 00-.288-.192 1.141 1.141 0 00-.38-.054zM84.232 30.35l1.282-4.779 1.356 4.78zm18.423-13.193v14.149c0 .284.02.534.07.743.051.213.143.388.28.526.142.142.334.246.577.321.246.071.563.109.955.109h5.234c.472 0 .843-.071 1.11-.21.272-.137.472-.308.601-.504.13-.2.213-.417.242-.643.034-.23.05-.438.05-.626V26.44a9.786 9.786 0 001.937-.513 4.84 4.84 0 001.624-1.027c.463-.45.83-1.018 1.106-1.707.271-.688.409-1.536.409-2.537 0-.677-.092-1.273-.276-1.79a4.377 4.377 0 00-.76-1.357 4.373 4.373 0 00-1.135-.973 6.722 6.722 0 00-1.419-.638 8.587 8.587 0 00-1.594-.347 13.219 13.219 0 00-1.678-.104h-5.45c-.393 0-.71.037-.956.108a1.373 1.373 0 00-.576.326c-.138.142-.23.321-.28.53-.05.213-.071.463-.071.747zm12.471 3.681c0 .497-.067.969-.196 1.411-.13.447-.33.843-.601 1.194-.267.35-.614.642-1.04.88-.421.238-.926.401-1.514.489V17.22a4.885 4.885 0 011.515.413c.425.204.772.463 1.039.772.271.309.471.672.6 1.081.13.413.197.864.197 1.352zm8.36 1.344v9.124c0 .284.02.534.07.743.051.213.143.388.28.526.142.142.334.246.576.321.247.071.564.109.956.109h5.355c.376 0 .68-.034.91-.105a1.21 1.21 0 00.547-.317c.13-.142.213-.317.254-.526.042-.209.063-.45.063-.726v-9.149c0-.292-.02-.547-.063-.755a1.039 1.039 0 00-.254-.526 1.205 1.205 0 00-.547-.313c-.23-.071-.534-.104-.91-.104h-5.355c-.392 0-.71.037-.956.108-.242.075-.434.18-.575.321-.138.138-.23.313-.28.53-.05.217-.071.464-.071.74zm.45-6.932c0 .555.11 1.077.326 1.573.213.493.505.923.873 1.29a4.13 4.13 0 001.298.872 3.922 3.922 0 001.586.326c.555 0 1.08-.109 1.573-.326a4.188 4.188 0 001.29-.872c.367-.367.66-.797.872-1.29a3.878 3.878 0 00.326-1.573c0-.564-.109-1.094-.326-1.59a4.088 4.088 0 00-.872-1.294 4.2 4.2 0 00-1.29-.877 3.86 3.86 0 00-1.573-.321c-.56 0-1.09.104-1.586.321a4.088 4.088 0 00-2.17 2.17 3.928 3.928 0 00-.326 1.59zm24.229 11.57c0-.827.088-1.512.263-2.058.175-.543.4-.981.668-1.307.271-.325.559-.555.868-.693.309-.133.6-.2.868-.2.205 0 .388.025.55.08.164.054.306.108.427.17.125.063.225.117.308.167.08.046.147.071.197.071.07 0 .12-.012.15-.037a.505.505 0 00.104-.134l.43-.66a.313.313 0 00.059-.17c0-.059-.017-.1-.046-.134a.94.94 0 00-.1-.088 5.934 5.934 0 00-1.023-.592c-.417-.2-.89-.384-1.415-.551-.526-.167-1.102-.3-1.72-.4a11.616 11.616 0 00-1.932-.155c-.61 0-1.223.05-1.832.146-.614.1-1.198.259-1.757.476a7.123 7.123 0 00-1.557.851 5.54 5.54 0 00-1.256 1.26 5.963 5.963 0 00-.835 1.724c-.205.656-.305 1.398-.305 2.233 0 .83.1 1.574.305 2.229.204.655.48 1.231.835 1.724a5.54 5.54 0 001.256 1.26c.48.347.997.63 1.557.852.559.217 1.143.38 1.757.475.61.096 1.223.146 1.832.146.751 0 1.444-.058 2.079-.17a12.376 12.376 0 001.732-.426 8.558 8.558 0 001.36-.572c.393-.205.722-.405.994-.593.029-.025.062-.05.096-.083a.183.183 0 00.05-.134c0-.05-.021-.108-.063-.175l-.426-.66a.705.705 0 00-.104-.133c-.03-.025-.08-.038-.154-.038-.05 0-.117.03-.21.08-.087.054-.2.116-.329.183-.13.071-.28.134-.45.184-.172.054-.36.08-.564.08-.267 0-.56-.063-.868-.197-.309-.13-.597-.355-.868-.676-.267-.322-.493-.756-.668-1.302-.175-.547-.263-1.232-.263-2.054zm11.344-9.663v14.149c0 .284.025.534.075.743.046.213.142.388.28.526.138.142.33.246.576.321.242.071.56.109.951.109h5.577c.684 0 1.373-.038 2.061-.117a6.126 6.126 0 001.866-.489 3.458 3.458 0 001.348-1.056c.346-.459.522-1.064.522-1.823 0-.589-.15-1.09-.455-1.511-.3-.418-.751-.727-1.357-.923.864-.392 1.54-1.06 2.025-2.003.484-.947.726-2.179.726-3.694 0-1.085-.192-2.003-.572-2.759a5.208 5.208 0 00-1.532-1.84 6.252 6.252 0 00-2.187-1.027 10.2 10.2 0 00-2.567-.317h-5.455c-.392 0-.71.037-.951.108a1.323 1.323 0 00-.576.326 1.086 1.086 0 00-.28.53c-.05.213-.075.463-.075.747zm12.471 4.428c0 .593-.062 1.16-.196 1.7a4.807 4.807 0 01-.597 1.443 3.58 3.58 0 01-1.04 1.056c-.425.28-.93.463-1.514.543v-9.095c.584.088 1.09.255 1.515.501.421.242.768.555 1.04.927.266.375.467.81.596 1.302.134.496.196 1.035.196 1.623zm-3.347 9.72V27.93c.43.025.797.092 1.106.197.305.104.55.237.743.396.192.159.33.342.417.547.084.2.13.405.13.61 0 .433-.188.805-.564 1.114-.376.308-.985.48-1.832.513zm11.966-9.123v9.124c0 .284.02.534.07.743.05.213.143.388.28.526.142.142.334.246.576.321.247.071.564.109.956.109h5.134c.45 0 .805-.038 1.064-.109.263-.075.46-.184.601-.325a1.03 1.03 0 00.267-.539c.042-.217.063-.467.063-.751v-6.19l4.032-3.13c.116-.088.2-.18.254-.271a.604.604 0 00.08-.276.568.568 0 00-.184-.405l-.551-.576a.722.722 0 00-.18-.125.478.478 0 00-.237-.058c-.155 0-.322.087-.501.259l-2.713 2.642v-.906c0-.292-.025-.551-.067-.772a1.212 1.212 0 00-.263-.551 1.242 1.242 0 00-.538-.33c-.23-.07-.53-.108-.906-.108h-5.355c-.392 0-.71.037-.956.108-.242.075-.434.18-.576.321-.137.138-.23.313-.28.53-.05.217-.07.464-.07.74zm25.66 11.253c.567 0 1.152-.038 1.748-.113a8.93 8.93 0 001.728-.384 6.458 6.458 0 001.574-.764 5.126 5.126 0 001.29-1.244c.371-.5.659-1.102.872-1.807.213-.705.317-1.532.317-2.475 0-.922-.104-1.724-.321-2.404-.217-.68-.51-1.265-.881-1.757a4.921 4.921 0 00-1.298-1.202 7.007 7.007 0 00-1.578-.747 8.813 8.813 0 00-1.723-.38 15.342 15.342 0 00-1.728-.104c-.614 0-1.223.05-1.837.15a8.743 8.743 0 00-1.753.467c-.559.217-1.076.501-1.56.848-.48.346-.898.768-1.253 1.264a6.049 6.049 0 00-.839 1.728c-.2.66-.304 1.402-.304 2.233 0 .847.104 1.599.304 2.258.205.655.484 1.231.84 1.728a5.36 5.36 0 001.251 1.26 6.998 6.998 0 001.561.831c.56.213 1.144.367 1.753.463.614.1 1.223.15 1.837.15zm3.752-2.939c-.267 0-.526-.037-.776-.12-.247-.08-.468-.251-.656-.514-.188-.259-.338-.639-.45-1.135-.113-.501-.172-1.16-.172-1.983 0-.822.071-1.482.21-1.974.137-.493.312-.872.517-1.14.208-.262.434-.438.672-.517a1.822 1.822 0 011.402.038c.242.104.463.292.66.567.196.271.354.647.471 1.119.117.471.175 1.076.175 1.811 0 .772-.058 1.41-.175 1.912-.117.5-.275.893-.463 1.18-.192.285-.413.48-.664.593a1.847 1.847 0 01-.751.163zm26.515-4.032l-1.757-5.233c-.1-.297-.242-.493-.43-.593-.187-.104-.484-.154-.893-.154h-4.829a.863.863 0 00-.446.12c-.134.084-.2.23-.2.443 0 .113.033.259.095.438l1.04 2.788-.723 2.191-2.003-5.233a1.832 1.832 0 00-.184-.364.811.811 0 00-.25-.225 1.152 1.152 0 00-.367-.12 3.076 3.076 0 00-.522-.038h-4.841a.8.8 0 00-.439.129c-.137.083-.208.234-.208.446 0 .13.033.272.096.426L223.8 31.88c.046.117.104.238.17.367.064.134.147.255.243.367.1.117.213.209.342.284.134.071.292.109.48.109h1.941c.313 0 .555-.096.735-.293.179-.196.346-.484.5-.855l1.958-4.72 1.774 4.74c.041.118.091.239.158.368.067.134.146.255.247.367.096.117.212.209.346.284a.996.996 0 00.472.109h1.957c.3 0 .538-.096.718-.293.18-.196.346-.484.505-.855l4.462-10.727a.896.896 0 00.083-.342.266.266 0 00-.096-.217c-.067-.058-.18-.087-.342-.087h-1.32c-.166 0-.295.016-.391.054a.64.64 0 00-.234.146.697.697 0 00-.134.221c-.033.088-.066.18-.1.276zm17.51-6.41c-.727 0-1.433.054-2.117.154-.685.1-1.298.276-1.84.526-.543.25-.998.58-1.365.997-.368.414-.593.931-.685 1.553l-.856 5.893c-.066.455-.183.81-.358 1.065-.176.25-.38.438-.614.563-.23.121-.484.196-.755.225-.276.03-.547.042-.814.042-.109 0-.18.021-.221.063a.328.328 0 00-.088.158l-.146.685a.876.876 0 00-.034.146.576.576 0 00-.012.108c0 .067.017.113.054.142.038.03.088.05.15.067.188.067.472.155.852.263.38.113.822.221 1.331.33.51.113 1.069.204 1.67.284.605.075 1.223.117 1.861.117 1.01 0 1.89-.096 2.646-.288.756-.192 1.386-.455 1.9-.79.513-.333.91-.721 1.18-1.164.276-.438.443-.91.51-1.415l.684-5.713c.071-.618.242-1.052.514-1.303.267-.246.634-.371 1.097-.371.134 0 .255.012.367.037.117.026.192.038.234.038.025 0 .05-.012.08-.033.029-.021.05-.08.066-.176l.146-.722.025-.12a.539.539 0 00.013-.1c0-.089-.02-.151-.067-.185a.575.575 0 00-.13-.07 7.204 7.204 0 00-.947-.351 16.74 16.74 0 00-2.767-.563 14.058 14.058 0 00-1.565-.092zm22.625 10.922c-.234 0-.48-.05-.73-.146a1.863 1.863 0 01-.706-.51c-.217-.241-.41-.563-.576-.967-.167-.401-.28-.906-.346-1.507h5.062c.171 0 .292-.042.368-.125a.495.495 0 00.108-.343v-.684c0-1.231-.184-2.27-.55-3.118-.368-.847-.873-1.532-1.516-2.053-.643-.522-1.406-.898-2.279-1.127a11.393 11.393 0 00-2.846-.342c-.61 0-1.223.05-1.833.15a8.596 8.596 0 00-1.752.467c-.56.217-1.081.501-1.561.848-.48.346-.898.768-1.253 1.264a6.049 6.049 0 00-.838 1.728c-.205.66-.305 1.402-.305 2.233 0 .847.1 1.599.305 2.258.204.655.484 1.231.838 1.728a5.36 5.36 0 001.253 1.26c.48.343 1.001.618 1.56.831a8.59 8.59 0 001.753.463 12.207 12.207 0 003.986-.03 11.64 11.64 0 001.753-.446c.518-.179.973-.375 1.365-.592.392-.217.722-.418.99-.605.033-.025.066-.055.1-.084a.186.186 0 00.05-.138.345.345 0 00-.063-.17l-.43-.66a.49.49 0 00-.104-.134c-.025-.025-.08-.037-.15-.037-.05 0-.122.029-.213.092-.096.062-.213.129-.355.2a3.754 3.754 0 01-.484.204c-.18.059-.38.092-.601.092zm1.444-4.637h-3.853c.025-.73.105-1.319.238-1.761.138-.438.3-.776.489-1.014.192-.234.4-.388.617-.464.222-.075.426-.108.614-.108.25 0 .497.05.726.159.234.104.434.287.605.542.171.259.31.601.41 1.027.104.43.154.968.154 1.62zm8.518-4.157v9.124c0 .284.025.534.071.743.05.213.146.388.284.526.138.142.33.246.572.321.246.071.563.109.956.109h5.133c.451 0 .806-.038 1.065-.109.263-.075.463-.184.6-.325a1 1 0 00.268-.539c.041-.217.062-.467.062-.751v-6.19l4.036-3.13a.996.996 0 00.25-.271.557.557 0 00.08-.276.568.568 0 00-.184-.405l-.55-.576a.781.781 0 00-.176-.125.502.502 0 00-.238-.058c-.158 0-.325.087-.505.259l-2.713 2.642v-.906c0-.292-.02-.551-.066-.772a1.212 1.212 0 00-.263-.551 1.195 1.195 0 00-.539-.33c-.23-.07-.53-.108-.906-.108h-5.354c-.393 0-.71.037-.956.108-.242.075-.434.18-.572.321a1.07 1.07 0 00-.284.53 3.579 3.579 0 00-.07.74z" fill="#094db4"/>
</svg>